<svg xmlns:inkscape="http://www.inkscape.org/namespaces/inkscape" xmlns:sodipodi="http://sodipodi.sourceforge.net/DTD/sodipodi-0.dtd" xmlns="http://www.w3.org/2000/svg" xmlns:svg="http://www.w3.org/2000/svg" data-name="Layer 1" viewBox="0 0 100 125" x="0px" y="0px" version="1.1" id="svg2" sodipodi:docname="noun-home-6459222.svg" inkscape:version="1.3 (0e150ed, 2023-07-21)">
  <defs id="defs2" fill="#b3b3b3"/>
  <sodipodi:namedview id="namedview2" pagecolor="#ffffff" bordercolor="#b3b3b3" borderopacity="0.25" inkscape:showpageshadow="2" inkscape:pageopacity="0.0" inkscape:pagecheckerboard="0" inkscape:deskcolor="#d1d1d1" inkscape:zoom="1.888" inkscape:cx="50.052966" inkscape:cy="62.5" inkscape:window-width="1312" inkscape:window-height="431" inkscape:window-x="0" inkscape:window-y="37" inkscape:window-maximized="0" inkscape:current-layer="svg2" fill="#b3b3b3"/>
  <path d="M67.39,72.5H58.48a3.37,3.37,0,0,1-3.36-3.36V56.25a.23.23,0,0,0-.24-.23H45.13a.23.23,0,0,0-.23.23V69.14a3.37,3.37,0,0,1-3.36,3.36H32.61a3.37,3.37,0,0,1-3.37-3.36V45.44a3.34,3.34,0,0,1,1.21-2.58l17.4-14.57a3.36,3.36,0,0,1,4.32,0L69.55,42.86a3.34,3.34,0,0,1,1.21,2.58v23.7A3.37,3.37,0,0,1,67.39,72.5ZM45.13,52.89h9.75a3.36,3.36,0,0,1,3.36,3.36V69.14a.23.23,0,0,0,.24.23h8.91a.23.23,0,0,0,.24-.23V45.44a.25.25,0,0,0-.09-.19L50.16,30.68a.24.24,0,0,0-.3,0L32.46,45.26a.21.21,0,0,0-.09.18v23.7a.23.23,0,0,0,.24.23h8.93a.23.23,0,0,0,.23-.23V56.25A3.37,3.37,0,0,1,45.13,52.89Z" id="path1" fill="#b3b3b3"/>
</svg>