<svg xmlns="http://www.w3.org/2000/svg" xmlns:xlink="http://www.w3.org/1999/xlink" width="80pt" height="100pt" viewBox="0 0 80 100" version="1.1">
<g id="surface1">
<path style=" stroke:none;fill-rule:nonzero;fill:#b8b8b8;fill-opacity:1;" d="M 6.320312 79.199219 L 6.320312 79.199219 C 3.28125 79.199219 0.800781 76.71875 0.800781 73.679688 L 0.800781 7.28125 C 0.800781 4.238281 3.28125 1.761719 6.320312 1.761719 C 9.359375 1.761719 11.839844 4.238281 11.839844 7.28125 L 11.839844 73.679688 C 11.761719 76.71875 9.359375 79.199219 6.320312 79.199219 Z M 6.320312 79.199219 "/>
<path style=" stroke:none;fill-rule:nonzero;fill:#b8b8b8;fill-opacity:1;" d="M 27.921875 79.199219 L 27.921875 79.199219 C 24.878906 79.199219 22.398438 76.71875 22.398438 73.679688 L 22.398438 7.28125 C 22.398438 4.238281 24.878906 1.761719 27.921875 1.761719 C 30.960938 1.761719 33.441406 4.238281 33.441406 7.28125 L 33.441406 73.679688 C 33.441406 76.71875 30.960938 79.199219 27.921875 79.199219 Z M 27.921875 79.199219 "/>
<path style=" stroke:none;fill-rule:nonzero;fill:#b8b8b8;fill-opacity:1;" d="M 75.359375 78.800781 L 75.359375 78.800781 C 72.558594 79.839844 69.359375 78.398438 68.320312 75.519531 L 43.839844 8.480469 C 42.800781 5.679688 44.238281 2.480469 47.121094 1.441406 C 49.921875 0.398438 53.121094 1.839844 54.160156 4.71875 L 78.640625 71.839844 C 79.601562 74.640625 78.160156 77.761719 75.359375 78.800781 Z M 75.359375 78.800781 "/>
</g>
</svg>